<?xml version="1.0" encoding="UTF-8"?>
<svg width="15px" height="12px" viewBox="0 0 15 12" version="1.1" xmlns="http://www.w3.org/2000/svg" xmlns:xlink="http://www.w3.org/1999/xlink">
    <defs></defs>
    <g id="UI" stroke="none" stroke-width="1" fill="none" fill-rule="evenodd">
        <g id="Popup-Contact-found" transform="translate(-495.000000, -609.000000)">
            <g id="logo_small" transform="translate(495.000000, 609.000000)">
                <path d="M11.1494172,9.20884287 L11.0168401,9.21881888 L4.73124932,9.75565326 C4.66063084,9.76277899 4.5998129,9.78424524 4.54124688,9.81702358 C4.52339139,9.82708866 4.47454584,9.86191565 4.43124627,9.90564979 C4.37848328,9.95891459 4.33239968,10.0223336 4.32124566,10.0326659 C3.78410232,10.5302377 2.79188512,11.3274947 2.15346192,11.6599989 C2.14132018,11.666323 2.113912,11.6790196 2.11194789,11.6799994 C2.09793133,11.6859671 2.08186138,11.6899996 2.06579144,11.6899996 C2.03409793,11.6899996 2.00517203,11.6803963 1.98383472,11.6599989 C1.96133679,11.6385326 1.94669529,11.6034916 1.94732023,11.5700006 C1.94776662,11.5449715 1.96446151,11.5170117 1.9724072,11.499999 C2.11748309,11.1868234 2.23345453,10.5580991 2.31844669,10.215797 C2.31987512,10.2100074 2.33478446,10.126191 2.33478446,10.0971537 C2.33478446,9.944485 2.25622029,9.81007599 2.13676703,9.73204929 C2.12685723,9.72554707 2.1040022,9.71298798 2.079808,9.70229939 C2.05311404,9.69045287 2.02499163,9.680655 2.0156175,9.67860635 C0.842154399,9.2729744 0,8.16029229 0,6.85129643 C0,6.09115962 0.28399164,5.39613412 0.753769701,4.86838504 C1.14632275,4.42471953 1.67029223,4.09818314 2.26452309,3.94898825 C2.2395254,3.77770362 2.22541956,3.60241076 2.22541956,3.42417854 C2.22541956,2.84031437 2.37192389,2.29047554 2.62993579,1.80975625 C3.2080967,0.733148129 4.3474558,0 5.65751344,0 C7.3669092,0 8.78436764,1.24789276 9.04639702,2.87932772 C9.5684024,2.55884819 10.1826314,2.37464817 10.84016,2.37464817 C12.7353422,2.37464817 14.2722539,3.90783719 14.2722539,5.79873764 C14.2722539,7.58542435 12.8999698,9.05359111 11.1494172,9.20884287 Z" id="Fill-46" fill="#8449EB" opacity="0.900000036"></path>
                <path d="M9.58515016,5.2379091 C10.0326981,5.2379091 10.3953432,5.5998069 10.3953432,6.04623363 C10.3953432,6.49266037 10.0326981,6.85464724 9.58515016,6.85464724 C9.27999976,6.85464724 9.01457783,6.6862129 8.8763763,6.43752506 L5.14788122,7.5864593 C5.15011315,7.61139934 5.15172015,7.63651752 5.15172015,7.66208107 C5.15172015,8.1085078 4.7888965,8.4704056 4.34152708,8.4704056 C3.89397911,8.4704056 3.53124474,8.1085078 3.53124474,7.66208107 C3.53124474,7.21556526 3.89397911,6.85366746 4.34152708,6.85366746 C4.35875764,6.85366746 4.37563108,6.85518167 4.39277235,6.8563396 L5.1463635,4.1345795 C4.67363928,3.93692968 4.34152708,3.47117442 4.34152708,2.92783781 C4.34152708,2.20555642 4.92843719,1.61999989 5.65238821,1.61999989 C6.37633924,1.61999989 6.96333862,2.20555642 6.96333862,2.92783781 C6.96333862,3.17599122 6.89280942,3.40722103 6.77246338,3.60487085 L9.06743009,5.42460312 C9.20786356,5.3080975 9.38829333,5.2379091 9.58515016,5.2379091 Z M5.05021166,7.27070057 L8.77879603,6.1218554 C8.77638553,6.09691536 8.77495709,6.07179718 8.77495709,6.04623363 C8.77495709,5.91574378 8.8066506,5.792825 8.8617348,5.68371233 L6.56676809,3.86398006 C6.33062917,4.09378472 6.00824822,4.23576481 5.65238821,4.23576481 C5.58900121,4.23576481 5.52713192,4.22970794 5.46606613,4.221068 L4.71220715,6.94380789 C4.854694,7.01720287 4.97254026,7.13112541 5.05021166,7.27070057 Z" id="Fill-47" fill="#FFFFFF"></path>
            </g>
        </g>
    </g>
</svg>