<?xml version="1.0" encoding="UTF-8"?>
<svg width="50px" height="50px" viewBox="0 0 50 50" version="1.1" xmlns="http://www.w3.org/2000/svg" xmlns:xlink="http://www.w3.org/1999/xlink">
   <!-- Generator: Sketch 48.1 (47250) - http://www.bohemiancoding.com/sketch -->
   <title>logo</title>
   <desc>Created with Sketch.</desc>
   <defs></defs>
   <g id="CCv1-loading" stroke="none" stroke-width="1" fill="none" fill-rule="evenodd" transform="translate(-125.000000, -274.000000)">
       <g id="logo" transform="translate(125.000000, 274.000000)">
           <path d="M49.8063084,20.2827103 C49.8063084,26.5320093 45.017757,31.667757 38.9081776,32.210514 L38.446028,32.2455607 L14.7757009,34.1231308 C14.5296729,34.1483645 14.2995327,34.2228972 14.0953271,34.3378505 C14.0329439,34.3731308 13.8640187,34.4948598 13.7130841,34.6476636 C13.5287383,34.8338785 13.3619159,35.0558411 13.3313084,35.0920561 C11.7170561,36.9920561 9.7432243,38.5726636 7.51518692,39.7357477 C7.4728972,39.7579439 7.37733645,39.8051402 7.37056075,39.8086449 C7.32149533,39.8296729 7.26542056,39.8401869 7.20934579,39.8401869 C7.09859813,39.8401869 6.99766355,39.7962617 6.92336449,39.725 C6.84485981,39.6497664 6.79369159,39.5439252 6.79602804,39.4268692 C6.79766355,39.3390187 6.85560748,39.2376168 6.88341121,39.1780374 C7.38995327,38.0827103 7.79439252,36.9299065 8.0911215,35.7327103 C8.09602804,35.7121495 8.14813084,35.4191589 8.14813084,35.317757 C8.14813084,34.7836449 7.87383178,34.3133178 7.45700935,34.0404206 C7.42242991,34.017757 7.34252336,33.9740654 7.25817757,33.9364486 C7.16495327,33.8950935 7.06705607,33.8607477 7.03434579,33.8535047 C2.93901869,32.4348131 0,28.5429907 0,23.964486 C0,21.3056075 0.99135514,18.8745327 2.63084112,17.028271 C4.00046729,15.4766355 5.82897196,14.3345794 7.90280374,13.8126168 C7.81518692,13.2135514 7.7661215,12.6004673 7.7661215,11.9768692 C7.7661215,9.93457944 8.27780374,8.0114486 9.17803738,6.32990654 C11.1957944,2.56425234 15.171729,0 19.7432243,0 C25.7088785,0 30.6551402,4.36495327 31.5693925,10.0712617 C33.3911215,8.95023364 35.5348131,8.30560748 37.8294393,8.30560748 C44.4432243,8.30560748 49.8063084,13.6689252 49.8063084,20.2827103" id="Fill-1" fill="#8759AD"></path>
           <path d="M17.6417523,25.4208645 C17.3709579,24.9323131 16.9592757,24.5339486 16.4620794,24.2771729 L19.0931542,14.7538084 C19.3060047,14.7841822 19.5218925,14.8049766 19.7431542,14.8049766 C20.9854439,14.8049766 22.1099766,14.3082477 22.9342757,13.5049766 L30.9431542,19.8696963 C30.7506308,20.251472 30.6401168,20.6813785 30.6401168,21.1379206 C30.6401168,21.2271729 30.645257,21.3150234 30.6534346,21.4021729 L17.6417523,25.4208645 Z M33.4674533,18.3103505 C32.7805374,18.3103505 32.1508645,18.5559112 31.6609112,18.9633879 L23.6520327,12.5984346 C24.0718925,11.9070794 24.3179206,11.0984346 24.3179206,10.2302103 C24.3179206,7.70380841 22.2697897,5.65544393 19.7431542,5.65544393 C17.2167523,5.65544393 15.1683879,7.70380841 15.1683879,10.2302103 C15.1683879,12.1309112 16.3277336,13.7601168 17.9775,14.4512383 L15.3475935,23.9713318 C15.288014,23.9673598 15.2289019,23.9622196 15.1683879,23.9622196 C13.6067056,23.9622196 12.3408178,25.2281075 12.3408178,26.7895561 C12.3408178,28.3510047 13.6067056,29.6168925 15.1683879,29.6168925 C16.7300701,29.6168925 17.9959579,28.3510047 17.9959579,26.7895561 C17.9959579,26.7003037 17.9905841,26.6124533 17.9824065,26.5253037 L30.9938551,22.5063785 C31.4763318,23.3760047 32.4027336,23.9654907 33.4674533,23.9654907 C35.0291355,23.9654907 36.2950234,22.6996028 36.2950234,21.1379206 C36.2950234,19.5762383 35.0291355,18.3103505 33.4674533,18.3103505 Z" id="Fill-4" fill="#FFFFFF"></path>
       </g>
   </g>
</svg>